<svg xmlns="http://www.w3.org/2000/svg" style="position: absolute; width: 0; height: 0; overflow: hidden;"><symbol id="custom-sprite-complex"><circle cx="50" cy="50" r="40" fill="#add8e6" stroke="#000" stroke-width="4"/><path fill="#90ee90" stroke="#000" stroke-width="2" d="M20 20h60v60H20z"/><text x="50" y="60" fill="#000" font-size="20" text-anchor="middle">Test</text></symbol><symbol id="custom-sprite-nested"><g fill="green"><circle cx="25" cy="25" r="20"/><path fill="#ff0" d="M0 0h10v10H0z"/></g></symbol><symbol id="custom-sprite-no-viewbox"><path fill="gray" d="M0 0h100v100H0z"/></symbol><symbol id="custom-sprite-test"><path fill="#000" d="M12 2C6.477 2 2 6.477 2 12s4.477 10 10 10 10-4.477 10-10S17.523 2 12 2m0 18a8 8 0 1 1 0-16 8 8 0 0 1 0 16M11 8v6l4-3z"/></symbol><symbol id="custom-sprite-with-attributes"><path fill="red" stroke="#000" d="M10 10h20v20H10Z"/></symbol><symbol id="custom-sprite-with-id"><path fill="#00f" d="m10 5 10 10-10 10Z"/></symbol></svg>